<?xml version="1.0"?>
<svg xmlns="http://www.w3.org/2000/svg" xmlns:xlink="http://www.w3.org/1999/xlink" xmlns:svgjs="http://svgjs.com/svgjs" version="1.1" width="512" height="512" x="0" y="0" viewBox="0 0 24 24" style="enable-background:new 0 0 512 512" xml:space="preserve" class=""><g><symbol xmlns="http://www.w3.org/2000/svg" id="material_x5F_system_x5F_icon_x5F_border" viewBox="0 -48 48 48"/><symbol xmlns="http://www.w3.org/2000/svg" id="material_x5F_system_x5F_icon_x5F_grid" viewBox="-.0002 -48 48.0002 48.0002"><g><g clip-path="url(#SVGID_2_)"><g/><g/><g><path d="m47.75-.25v-47.5h-47.5v47.5zm.25.25h-48v-48h48z" fill="#ffffff" data-original="#000000" class=""/></g></g></g></symbol><clipPath xmlns="http://www.w3.org/2000/svg" id="SVGID_2_"><path id="SVGID_1_" d="m0-48h48v48h-48z" fill="#ffffff" data-original="#000000" class=""/></clipPath><symbol xmlns="http://www.w3.org/2000/svg" id="material_x5F_system_x5F_icon_x5F_keylines" viewBox="-.0002 -48.0001 48.0002 48.0001"><g opacity=".4"><g clip-path="url(#SVGID_4_)"><path d="m47.75-.25v-47.5h-47.5v47.5zm.25.25h-48v-48h48z" fill="#ffffff" data-original="#000000" class=""/></g></g></symbol><clipPath xmlns="http://www.w3.org/2000/svg" id="SVGID_4_"><path id="SVGID_3_" d="m0-48h48v48h-48z" fill="#ffffff" data-original="#000000" class=""/></clipPath><g xmlns="http://www.w3.org/2000/svg" id="Backup" display="none"><g display="inline"><path d="m4 12.0005v-.0001c-.0001-.5523.4476-1.0001.9999-1.0001l14-.0008c.5523 0 1 .4476 1.0001.9999v.0001c0 .5524-.4477 1.0002-1 1.0002l-14 .0007c-.5522.0001-1-.4476-1-.9999z" fill="#ffffff" data-original="#000000" class=""/></g><g display="inline"><path d="m4 7.0005v-.0001c-.0001-.5523.4476-1 .9999-1.0001l14-.0008c.5523 0 1 .4476 1.0001.9999v.0001c0 .5524-.4477 1.0002-1 1.0002l-14 .0007c-.5522.0001-1-.4476-1-.9999z" fill="#ffffff" data-original="#000000" class=""/></g><g display="inline"><path d="m4 17.0005v-.0001c-.0001-.5523.4476-1.0001.9999-1.0001l14-.0008c.5523 0 1 .4476 1.0001.9999v.0001c0 .5524-.4477 1.0002-1 1.0002l-14 .0007c-.5522.0001-1-.4476-1-.9999z" fill="#ffffff" data-original="#000000" class=""/></g></g><g xmlns="http://www.w3.org/2000/svg" id="Grid" display="none" transform="scale(.5 -.5)"><use xmlns:xlink="http://www.w3.org/1999/xlink" id="XMLID_56_" display="inline" height="48" opacity=".15" width="48" xlink:href="#material_x5F_system_x5F_icon_x5F_grid" y="-48"/><use xmlns:xlink="http://www.w3.org/1999/xlink" id="XMLID_55_" display="inline" height="48" width="48" xlink:href="#material_x5F_system_x5F_icon_x5F_border" y="-48"/></g><g xmlns="http://www.w3.org/2000/svg" id="Keyline" display="none"><use xmlns:xlink="http://www.w3.org/1999/xlink" id="XMLID_20_" display="inline" height="48" transform="scale(.5 -.5)" width="48" xlink:href="#material_x5F_system_x5F_icon_x5F_keylines" y="-48"/></g><g xmlns="http://www.w3.org/2000/svg" id="Outline" display="none"><g display="inline"><g><path d="m4 12.0005c-.0001-.5523.4477-1.0001 1-1.0002l13.9999-.0008c.5523 0 1.0001.4477 1.0001 1 .0001.5523-.4477 1.0001-1 1.0002l-13.9999.0007c-.5523.0001-1-.4476-1.0001-.9999z" fill="#ffffff" data-original="#000000" class=""/></g><g><path d="m4 7.0005c-.0001-.5524.4477-1.0002 1-1.0002l13.9999-.0008c.5523 0 1.0001.4477 1.0001 1 .0001.5523-.4477 1.0001-1 1.0002l-13.9999.0007c-.5523.0001-1-.4476-1.0001-.9999z" fill="#ffffff" data-original="#000000" class=""/></g><g><path d="m4 17.0005c-.0001-.5523.4477-1.0001 1-1.0002l13.9999-.0008c.5523 0 1.0001.4477 1.0001 1 .0001.5523-.4477 1.0001-1 1.0002l-13.9999.0007c-.5523.0001-1-.4476-1.0001-.9999z" fill="#ffffff" data-original="#000000" class=""/></g></g></g><g xmlns="http://www.w3.org/2000/svg" id="Filled"><g><path d="m4 12.0005v-.0001c-.0001-.5523.4476-1.0001.9999-1.0001l14-.0008c.5523 0 1 .4476 1.0001.9999v.0001c.0001.5523-.4476 1.0001-.9999 1.0001l-14 .0008c-.5523.0001-1-.4476-1.0001-.9999z" fill="#ffffff" data-original="#000000" class=""/><path d="m4 7.0005v-.0001c-.0001-.5523.4476-1.0001.9999-1.0001l14-.0008c.5523 0 1 .4476 1.0001.9999v.0001c.0001.5523-.4476 1.0001-.9999 1.0001l-14 .0008c-.5523.0001-1-.4476-1.0001-.9999z" fill="#ffffff" data-original="#000000" class=""/><path d="m4 17.0005v-.0001c-.0001-.5523.4476-1.0001.9999-1.0001l14-.0008c.5523 0 1 .4476 1.0001.9999v.0001c.0001.5523-.4476 1.0001-.9999 1.0001l-14 .0008c-.5523.0001-1-.4476-1.0001-.9999z" fill="#ffffff" data-original="#000000" class=""/></g></g><g xmlns="http://www.w3.org/2000/svg" id="Two_Tone" display="none"><g display="inline"><path d="m4 12.0005v-.0001c-.0001-.5523.4476-1.0001.9999-1.0001l14-.0008c.5523 0 1 .4476 1.0001.9999v.0001c.0001.5523-.4476 1.0001-.9999 1.0001l-14 .0008c-.5523.0001-1-.4476-1.0001-.9999z" fill="#ffffff" data-original="#000000" class=""/><g><path d="m4 7.0005v-.0001c-.0001-.5523.4476-1.0001.9999-1.0001l14-.0008c.5523 0 1 .4476 1.0001.9999v.0001c.0001.5523-.4476 1.0001-.9999 1.0001l-14 .0008c-.5523.0001-1-.4476-1.0001-.9999z" fill="#00d6a2" data-original="#00d6a2" class=""/></g><g><path d="m4 17.0005v-.0001c-.0001-.5523.4476-1.0001.9999-1.0001l14-.0008c.5523 0 1 .4476 1.0001.9999v.0001c.0001.5523-.4476 1.0001-.9999 1.0001l-14 .0008c-.5523.0001-1-.4476-1.0001-.9999z" fill="#00d6a2" data-original="#00d6a2" class=""/></g></g></g></g></svg>
