<?xml version="1.0" encoding="utf-8"?>
<!-- Generator: Adobe Illustrator 22.1.0, SVG Export Plug-In . SVG Version: 6.00 Build 0)  -->
<svg version="1.1" id="Layer_1" xmlns="http://www.w3.org/2000/svg" xmlns:xlink="http://www.w3.org/1999/xlink" x="0px" y="0px"
	 viewBox="0 0 453.5 89.8" style="enable-background:new 0 0 453.5 89.8;" xml:space="preserve">
<style type="text/css">
	.st4{fill:#005A92;}
</style>
<g>
	<path class="st4" d="M16.5,9C10.8,9,4.8,9.5,2,10c-1.3,0.2-2,0.8-2,2.4v45.1c0,1.6,0.7,2.2,2,2.4c2.8,0.5,8.9,1,14.5,1
		c13.6,0,21.8-7.2,21.8-21.5v-8.8C38.3,16.1,30.1,9,16.5,9z M26.6,39.3c0,9.2-4,11.7-10.1,11.7c-1.7,0-3.9-0.1-4.8-0.1V19
		c1-0.1,3.1-0.1,4.8-0.1c6.1,0,10.1,2.5,10.1,11.7V39.3z M152.8,17.1h4.8c0.7,0,1-0.4,1-1.2v-1.3c0-1.4,0.7-1.8,1.6-1.8
		c0.8,0,1.6,0.4,2.8,1.2l2.9,2c1.4,1,3.5,1.5,4.8,1.5c5.1,0,8.3-2.2,8.3-8.2V8c0-0.8-0.3-1.1-1-1.1h-4.8c-0.7,0-1.1,0.3-1.1,1.1v1.3
		c0,1.4-0.5,1.8-1.6,1.8c-0.8,0-1.6-0.5-2.7-1.2L165,8c-1.4-1-3.4-1.4-4.8-1.4c-5.1,0-8.4,2.2-8.4,8.1V16
		C151.8,16.7,152.1,17.1,152.8,17.1z M60.1,20.6c-11,0-17.1,6.9-17.1,17.7v4.8c0,10.8,6.1,17.7,17.1,17.7c11,0,17-6.9,17-17.7v-4.8
		C77.2,27.5,71.2,20.6,60.1,20.6z M66.2,43.1c0,5.5-2.1,8.4-6.1,8.4c-4,0-6.1-2.9-6.1-8.4v-4.8c0-5.5,2.2-8.3,6.1-8.3
		c4,0,6.1,2.8,6.1,8.3V43.1z M96.8,20.6c-4.5,0-9.3,0.8-11.8,1.4c-0.8,0.2-1.3,0.8-1.3,1.5v5.5c0,0.9,0.5,1.2,1.2,1.2h0.3
		c2.1-0.2,7-0.5,11.3-0.5c3.2,0,5.1,0.8,5.1,4.7V37H98c-11.7,0-16.8,3.5-16.8,11.5v0.6c0,8.9,5.7,11.7,11.7,11.7
		c4.1,0,6.8-1.2,9.5-3.1v1.1c0,0.7,0.6,1.4,1.4,1.4h7.6c0.8,0,1.4-0.6,1.4-1.4V34.5C112.7,24.6,106.6,20.6,96.8,20.6z M101.9,51
		c-1.6,0.8-3.5,1.5-5.6,1.5c-2.9,0-4.3-0.5-4.3-3.4v-0.6c0-3.3,1.2-5,6-5h3.9V51z M202.5,20.6c-11,0-17.1,6.9-17.1,17.7v4.8
		c0,10.8,6.1,17.7,17.1,17.7c11,0,17-6.9,17-17.7v-4.8C219.5,27.5,213.5,20.6,202.5,20.6z M208.5,43.1c0,5.5-2.1,8.4-6.1,8.4
		c-4,0-6.1-2.9-6.1-8.4v-4.8c0-5.5,2.2-8.3,6.1-8.3c4,0,6.1,2.8,6.1,8.3V43.1z M164,20.6c-4.5,0-9.3,0.8-11.8,1.4
		c-0.8,0.2-1.3,0.8-1.3,1.5v5.5c0,0.9,0.5,1.2,1.2,1.2h0.3c2.1-0.2,7-0.5,11.3-0.5c3.2,0,5.1,0.8,5.1,4.7V37h-3.7
		c-11.7,0-16.8,3.5-16.8,11.5v0.6c0,8.9,5.7,11.7,11.7,11.7c4.1,0,6.8-1.2,9.5-3.1v1.1c0,0.7,0.6,1.4,1.4,1.4h7.6
		c0.8,0,1.4-0.6,1.4-1.4V34.5C180,24.6,173.8,20.6,164,20.6z M169.1,51c-1.6,0.8-3.5,1.5-5.6,1.5c-2.9,0-4.3-0.5-4.3-3.4v-0.6
		c0-3.3,1.2-5,6-5h3.9V51z M137.9,62.6h-9c-1,0-1.3,0.3-1.8,1l-6.3,8c-0.2,0.3-0.3,0.5-0.3,0.7c0,0.3,0.3,0.5,0.7,0.5h7.3
		c0.9,0,1-0.3,1.6-0.8l8.4-8.3c0.2-0.2,0.3-0.4,0.3-0.5C138.6,62.8,138.3,62.6,137.9,62.6z M143.1,21.6c-1.9-0.5-5-1-9.1-1
		c-9.6,0-15.9,6.1-15.9,17.3v5.7c0,11.1,6.3,17.3,15.9,17.3c4.1,0,7.2-0.5,9.1-1c1-0.3,1.4-0.5,1.4-1.6v-6.1c0-0.7-0.6-1.2-1.3-1.2
		c0,0-0.1,0-0.1,0c-2.5,0.3-4.4,0.5-8.3,0.5c-3.1,0-5.6-1.8-5.6-7.9v-5.7c0-6.1,2.5-7.9,5.6-7.9c3.9,0,5.8,0.2,8.3,0.5
		c0.1,0,0.1,0,0.1,0c0.7,0,1.3-0.5,1.3-1.2v-6.1C144.6,22.2,144.2,21.9,143.1,21.6z"/>
	<path class="st4" d="M253.3,50.8h-11.7c-3.2,0-4.4-1.1-4.4-4.6V10.9c0-0.7-0.6-1.4-1.4-1.4H227c-0.8,0-1.4,0.6-1.4,1.4v35.3
		c0,12.4,7.8,14.7,16.6,14.7c3.6,0,8.9-0.4,11.1-0.9c1-0.2,1.4-0.5,1.4-1.4v-6.3C254.7,51.4,254.1,50.8,253.3,50.8z M287.8,9.9
		C285.4,9.5,282,9,274.6,9c-8.8,0-16.6,2.2-16.6,14.6v22.6c0,12.4,7.8,14.7,16.6,14.7c7.4,0,10.8-0.5,13.2-0.9
		c1-0.1,1.4-0.5,1.4-1.4v-6.3c0-0.8-0.6-1.4-1.4-1.4h-13.8c-3.2,0-4.4-1.1-4.4-4.6V39h17.7c0.7,0,1.4-0.6,1.4-1.4v-6.5
		c0-0.7-0.6-1.4-1.4-1.4h-17.7v-6.2c0-3.5,1.2-4.6,4.4-4.6h13.8c0.7,0,1.4-0.6,1.4-1.4v-6.3C289.1,10.3,288.7,10,287.8,9.9z
		 M412.9,20.6c8.8,8.8,15.9,4.8,22.1-1.4c0.9-0.9,10.1-10.9,11.2-12.4c0.6-0.8,0.6-1.3,0-1.9l-4.5-4.5c-0.5-0.5-1.4-0.5-1.9,0
		l-12.4,12.2c-0.8,0.8-1.6,1.4-2.3,1.6c-1.2,0.3-2.4-0.2-4-1.8l-1.2-1.2l0,0l-1.6-1.6c-0.5-0.5-1.4-0.5-1.9,0l-6.3,6.3
		c-0.5,0.5-0.5,1.4,0,1.9L412.9,20.6z M397.5,60.9c3.6,0,8.9-0.4,11.1-0.9c1-0.2,1.4-0.5,1.4-1.4v-6.3c0-0.8-0.6-1.4-1.4-1.4h-11.7
		c-3.2,0-4.4-1.1-4.4-4.6V10.9c0-0.7-0.6-1.4-1.4-1.4h-8.9c-0.8,0-1.4,0.6-1.4,1.4v35.3C380.9,58.6,388.7,60.9,397.5,60.9z
		 M329.6,10.5C327.1,10,322.2,9,315.4,9c-9.9,0-20.7,4.4-20.7,21.8v8.5c0,17.3,11.7,21.7,19.4,21.7c6.8,0,11.6-0.7,15.3-1.4
		c1-0.2,1.4-0.6,1.4-1.6V34.9c0-0.7-0.6-1.4-1.4-1.4h-8.7c-0.7,0-1.3,0.6-1.3,1.4v15.7c-1.6,0.1-3.3,0.2-5.3,0.2
		c-3.3,0-7.6-2.2-7.6-11.6v-8.5c0-8.9,3.4-11.6,8.9-11.6c5.8,0,10.9,0.4,14.2,0.5h0.2c0.6,0,1-0.1,1-0.9v-7.2
		C330.8,10.9,330.3,10.7,329.6,10.5z M452,44.6h-8.5c-0.8,0-1.5,0.7-1.6,1.5c-0.8,17.8-15.2,32.6-34,32.6c-8,0-14.1-1.6-20.4-5.3
		c-0.7-0.4-1.6-0.4-2.1,0.3l-4.2,5.5c-0.5,0.7-0.4,1.7,0.3,2.2c7.8,5.5,16.9,8.4,26.5,8.4c24.7,0,44.8-19.4,45.7-43.6
		C453.6,45.3,452.8,44.6,452,44.6z M367.6,16.5C366.1,10,361.1,9,356.4,9c-4.7,0-9.8,1-11.3,7.6l-10.2,42.3c0,0.1-0.1,0.3-0.1,0.3
		c0,0.7,0.5,1.1,1.2,1.1h9.5c0.7,0,1.2-0.5,1.4-1.2l2.5-11.2h14l2.5,11.2c0.1,0.7,0.7,1.2,1.4,1.2h9.5c0.7,0,1.2-0.4,1.2-1.1
		c0-0.1-0.1-0.2-0.1-0.3L367.6,16.5z M351.3,38.5l4.2-18.8c0.1-0.7,0.3-1,1-1c0.6,0,0.8,0.3,0.9,1l4.2,18.8H351.3z"/>
</g>
</svg>
